<svg width="54" height="54" viewBox="0 0 54 54" fill="none" xmlns="http://www.w3.org/2000/svg">
<rect width="54" height="54" rx="15" fill="#2A2A2A"/>
<path d="M36.75 20.16C36.7351 20.033 36.688 19.9119 36.6132 19.8082C36.5384 19.7045 36.4383 19.6216 36.3225 19.5675C36.2032 19.5106 36.0711 19.4861 35.9394 19.4967C35.8077 19.5072 35.6811 19.5523 35.5725 19.6275C34.8513 20.131 33.9716 20.355 33.0974 20.2575C32.3255 20.0911 31.6199 19.7006 31.0689 19.1349C30.5179 18.5692 30.146 17.8536 30 17.0775C29.9604 16.9097 29.8642 16.7607 29.7276 16.6555C29.591 16.5503 29.4223 16.4954 29.25 16.5H24.75C24.5776 16.4954 24.4089 16.5503 24.2723 16.6555C24.1357 16.7607 24.0395 16.9097 24 17.0775C23.852 17.8532 23.4785 18.5679 22.9261 19.1323C22.3738 19.6966 21.6672 20.0854 20.895 20.25C20.0208 20.3475 19.1411 20.1235 18.42 19.62C18.3113 19.5448 18.1847 19.4997 18.053 19.4892C17.9213 19.4786 17.7892 19.5031 17.67 19.56C17.5545 19.6158 17.4553 19.7002 17.3817 19.8053C17.3082 19.9103 17.2628 20.0325 17.25 20.16C17.19 20.6175 15.9975 31.41 22.83 35.91C24.053 36.7034 25.4223 37.244 26.8575 37.5H27H27.1425C28.5766 37.2361 29.9435 36.6879 31.1624 35.8875C37.9949 31.3725 36.8025 20.6175 36.75 20.16ZM30.3375 34.6275C29.3217 35.2919 28.1892 35.7576 27 36C25.8117 35.7622 24.6793 35.3016 23.6625 34.6425C19.875 32.13 18.885 27.345 18.6825 24H35.3174C35.115 27.345 34.125 32.13 30.3375 34.6275ZM18.6375 22.5C18.6375 22.1025 18.6375 21.75 18.6375 21.435C19.4174 21.7571 20.2691 21.8658 21.105 21.75C22.0833 21.5722 22.9936 21.1281 23.7359 20.4665C24.4782 19.8049 25.0237 18.9515 25.3125 18H28.6875C28.9762 18.9515 29.5217 19.8049 30.264 20.4665C31.0063 21.1281 31.9166 21.5722 32.895 21.75C33.7222 21.862 34.5643 21.7587 35.34 21.45C35.34 21.75 35.34 22.11 35.34 22.5075L18.6375 22.5Z" fill="white"/>
<path d="M24.3224 30.6826L23.9399 32.8726C23.9132 33.0132 23.9272 33.1585 23.9803 33.2914C24.0335 33.4243 24.1236 33.5392 24.2399 33.6226C24.3686 33.7158 24.5236 33.7657 24.6824 33.7651C24.8045 33.7635 24.9248 33.7354 25.0349 33.6826L26.9999 32.6326L28.9649 33.6676C29.0897 33.7333 29.2305 33.7626 29.3711 33.752C29.5117 33.7414 29.6465 33.6913 29.7599 33.6076C29.8763 33.5242 29.9664 33.4093 30.0195 33.2764C30.0727 33.1435 30.0867 32.9982 30.0599 32.8576L29.6774 30.6676L31.2749 29.1151C31.3762 29.0172 31.4479 28.8929 31.4817 28.7562C31.5156 28.6196 31.5104 28.4761 31.4665 28.3423C31.4227 28.2085 31.3421 28.0897 31.234 27.9996C31.1258 27.9095 30.9945 27.8516 30.8549 27.8326L28.6574 27.5176L27.6749 25.5376C27.6135 25.4108 27.5176 25.3038 27.3983 25.229C27.2789 25.1542 27.1408 25.1145 26.9999 25.1145C26.859 25.1145 26.721 25.1542 26.6016 25.229C26.4822 25.3038 26.3864 25.4108 26.3249 25.5376L25.3424 27.5326L23.1449 27.8476C23.0054 27.8666 22.8741 27.9245 22.7659 28.0146C22.6578 28.1047 22.5772 28.2235 22.5333 28.3573C22.4895 28.4911 22.4843 28.6346 22.5181 28.7712C22.552 28.9079 22.6237 29.0322 22.7249 29.1301L24.3224 30.6826ZM25.9499 28.9576C26.0701 28.9395 26.1841 28.8926 26.2821 28.8207C26.3801 28.7489 26.4591 28.6543 26.5124 28.5451L26.9999 27.5626L27.4874 28.5451C27.5408 28.6543 27.6198 28.7489 27.7178 28.8207C27.8158 28.8926 27.9298 28.9395 28.0499 28.9576L29.1374 29.1151L28.3499 29.8651C28.262 29.9502 28.1962 30.0555 28.1583 30.1718C28.1204 30.2882 28.1115 30.412 28.1324 30.5326L28.3199 31.6126L27.3524 31.1026C27.2428 31.0484 27.1222 31.0202 26.9999 31.0202C26.8777 31.0202 26.757 31.0484 26.6474 31.1026L25.6799 31.6126L25.8674 30.5326C25.8884 30.412 25.8795 30.2882 25.8416 30.1718C25.8037 30.0555 25.7379 29.9502 25.6499 29.8651L24.8999 29.1151L25.9499 28.9576Z" fill="white"/>
</svg>
