<svg width="54" height="54" viewBox="0 0 54 54" fill="none" xmlns="http://www.w3.org/2000/svg">
<rect width="54" height="54" rx="15" fill="#2A2A2A"/>
<path d="M36 30.75V25.5C36.0004 25.3427 35.9514 25.1893 35.8599 25.0615C35.7684 24.9336 35.639 24.8378 35.49 24.7875L34.6425 24.51C34.379 24.4222 34.1504 24.2527 33.9899 24.0261C33.8294 23.7995 33.7454 23.5276 33.75 23.25V18.75C33.7503 18.6094 33.7111 18.4716 33.6368 18.3522C33.5625 18.2329 33.4562 18.1368 33.33 18.075L30.195 16.575C30.0751 16.5191 29.9426 16.4959 29.8109 16.5078C29.6792 16.5196 29.553 16.5661 29.445 16.6425C29.3359 16.7191 29.2492 16.8234 29.1938 16.9447C29.1385 17.066 29.1164 17.1998 29.13 17.3325C29.3925 19.8075 28.515 21.4575 27.51 21.8325C27.1813 21.9417 26.8262 21.9417 26.4975 21.8325C25.305 21.39 24.57 19.5 24.75 17.31C24.7606 17.1771 24.7356 17.0439 24.6776 16.924C24.6196 16.804 24.5307 16.7017 24.42 16.6275C24.31 16.5547 24.1827 16.5122 24.051 16.5043C23.9194 16.4964 23.7879 16.5233 23.67 16.5825L20.67 18.0825C20.5449 18.1438 20.4394 18.2387 20.3652 18.3566C20.291 18.4745 20.2511 18.6107 20.25 18.75V23.25C20.2499 23.5238 20.1636 23.7906 20.0034 24.0127C19.8433 24.2348 19.6173 24.4009 19.3575 24.4875L18.51 24.765C18.3573 24.8164 18.2253 24.9157 18.1334 25.0481C18.0416 25.1805 17.9948 25.3389 18 25.5V30.75C17.8011 30.75 17.6103 30.829 17.4697 30.9696C17.329 31.1103 17.25 31.3011 17.25 31.5V34.5C17.25 34.6989 17.329 34.8896 17.4697 35.0303C17.6103 35.1709 17.8011 35.25 18 35.25V36.75C18 36.9489 18.079 37.1396 18.2197 37.2803C18.3603 37.4209 18.5511 37.5 18.75 37.5H35.25C35.4489 37.5 35.6397 37.4209 35.7803 37.2803C35.921 37.1396 36 36.9489 36 36.75V35.25C36.1989 35.25 36.3897 35.1709 36.5303 35.0303C36.671 34.8896 36.75 34.6989 36.75 34.5V31.5C36.75 31.3011 36.671 31.1103 36.5303 30.9696C36.3897 30.829 36.1989 30.75 36 30.75ZM33.75 33.75V32.25H35.25V33.75H33.75ZM32.25 19.2225V19.785L30.615 18.9675C30.615 18.795 30.6525 18.63 30.66 18.45L32.25 19.2225ZM23.25 18.4725C23.25 18.66 23.25 18.8325 23.3025 19.02L21.75 19.785V19.215L23.25 18.4725ZM18.75 33.75V32.25H20.25V33.75H18.75ZM34.5 36H19.5V35.25H21C21.1989 35.25 21.3897 35.1709 21.5303 35.0303C21.671 34.8896 21.75 34.6989 21.75 34.5V31.5C21.75 31.3011 21.671 31.1103 21.5303 30.9696C21.3897 30.829 21.1989 30.75 21 30.75H19.5V26.04L19.83 25.9275C20.3922 25.7418 20.881 25.3825 21.226 24.9014C21.571 24.4202 21.7545 23.842 21.75 23.25V21.465L23.625 20.5275C23.7858 21.1344 24.0847 21.696 24.4984 22.1682C24.9122 22.6405 25.4295 23.0107 26.01 23.25C26.655 23.4655 27.3525 23.4655 27.9975 23.25C28.567 23.008 29.0723 22.6366 29.4732 22.1654C29.8742 21.6941 30.1598 21.1359 30.3075 20.535L32.25 21.465V23.25C32.2503 23.8382 32.436 24.4113 32.7806 24.888C33.1253 25.3646 33.6115 25.7205 34.17 25.905L34.5 26.0175V30.75H33C32.8011 30.75 32.6103 30.829 32.4697 30.9696C32.329 31.1103 32.25 31.3011 32.25 31.5V34.5C32.25 34.6989 32.329 34.8896 32.4697 35.0303C32.6103 35.1709 32.8011 35.25 33 35.25H34.5V36Z" fill="white"/>
<path d="M31.5525 27.2625L32.3475 26.5125C32.4466 26.4143 32.5163 26.2905 32.5489 26.155C32.5815 26.0194 32.5757 25.8774 32.532 25.745C32.4884 25.6126 32.4087 25.4949 32.302 25.4053C32.1952 25.3156 32.0655 25.2575 31.9275 25.2375L30.84 25.08L30.3525 24.09C30.2911 23.9631 30.1952 23.8562 30.0759 23.7814C29.9565 23.7066 29.8184 23.6669 29.6775 23.6669C29.5366 23.6669 29.3986 23.7066 29.2792 23.7814C29.1598 23.8562 29.064 23.9631 29.0025 24.09L28.5 25.0575L27.405 25.215C27.2677 25.2361 27.1389 25.2951 27.0331 25.3852C26.9273 25.4753 26.8486 25.5931 26.8058 25.7253C26.763 25.8576 26.7578 25.9991 26.7908 26.1341C26.8238 26.2691 26.8936 26.3923 26.9925 26.49L27.78 27.24L27.5925 28.3275C27.5658 28.4681 27.5798 28.6134 27.6329 28.7463C27.6861 28.8792 27.7762 28.9941 27.8925 29.0775C28.006 29.1585 28.1397 29.2064 28.2788 29.2157C28.4179 29.2249 28.5569 29.1953 28.68 29.13L29.655 28.62L30.63 29.13C30.7384 29.1884 30.8594 29.2193 30.9825 29.22C31.1388 29.2189 31.2909 29.1691 31.4175 29.0775C31.5339 28.9941 31.624 28.8792 31.6771 28.7463C31.7303 28.6134 31.7443 28.4681 31.7175 28.3275L31.5525 27.2625ZM30 27.105C29.8973 27.0546 29.7844 27.0285 29.67 27.0285C29.5556 27.0285 29.4428 27.0546 29.34 27.105C29.3555 26.9926 29.3454 26.8783 29.3103 26.7704C29.2752 26.6626 29.2162 26.5642 29.1375 26.4825C29.2502 26.4624 29.3567 26.4168 29.449 26.3492C29.5413 26.2816 29.6169 26.1938 29.67 26.0925C29.7232 26.1938 29.7988 26.2816 29.8911 26.3492C29.9834 26.4168 30.0899 26.4624 30.2025 26.4825C30.1239 26.5642 30.0649 26.6626 30.0298 26.7704C29.9947 26.8783 29.9845 26.9926 30 27.105Z" fill="white"/>
</svg>
