<svg width="54" height="54" viewBox="0 0 54 54" fill="none" xmlns="http://www.w3.org/2000/svg">
<rect width="54" height="54" rx="15" fill="#2A2A2A"/>
<path d="M36.75 20.25H35.25V19.5C35.25 19.3011 35.171 19.1103 35.0304 18.9697C34.8897 18.829 34.699 18.75 34.5 18.75C34.3011 18.75 34.1104 18.829 33.9697 18.9697C33.8291 19.1103 33.75 19.3011 33.75 19.5V20.25H22.5V19.5C22.5 19.3011 22.421 19.1103 22.2804 18.9697C22.1397 18.829 21.949 18.75 21.75 18.75C21.5511 18.75 21.3604 18.829 21.2197 18.9697C21.0791 19.1103 21 19.3011 21 19.5V20.25H19.7625L19.5825 20.055C19.397 19.8569 19.1682 19.7043 18.914 19.6091C18.6598 19.5139 18.387 19.4788 18.1169 19.5063C17.8469 19.5339 17.5869 19.6235 17.3571 19.7681C17.1274 19.9127 16.9342 20.1084 16.7925 20.34C16.6522 20.5604 16.5597 20.8077 16.5209 21.0661C16.4821 21.3245 16.498 21.5881 16.5675 21.84C16.6735 22.2452 16.9142 22.6022 17.25 22.8525V25.5C17.2567 25.5869 17.2743 25.6726 17.3025 25.755C17.3025 25.755 17.3025 25.7925 17.3025 25.815C17.313 25.8447 17.3282 25.8726 17.3475 25.8975L18.435 27.5325C18.5998 27.7824 18.669 28.0832 18.63 28.38L18.1275 32.4525C18.0942 32.7061 18.1159 32.964 18.1909 33.2086C18.266 33.4531 18.3927 33.6787 18.5625 33.87C18.7343 34.0693 18.9474 34.2289 19.187 34.3377C19.4266 34.4464 19.6869 34.5018 19.95 34.5H22.4025C22.8176 34.5033 23.22 34.3574 23.5366 34.089C23.8532 33.8206 24.0629 33.4475 24.1275 33.0375L24.5475 30.525C24.5738 30.3786 24.6504 30.246 24.764 30.1502C24.8777 30.0543 25.0213 30.0012 25.17 30H26.67C26.74 30.0037 26.8101 30.0037 26.88 30C26.9198 30.0064 26.9603 30.0064 27 30C27.1009 29.9956 27.2 29.9727 27.2925 29.9325C27.9637 29.7974 28.5662 29.4311 28.995 28.8975L29.88 27.7875C30.0509 27.5742 30.1725 27.3257 30.236 27.0599C30.2996 26.7941 30.3035 26.5175 30.2475 26.25H36.75C36.949 26.25 37.1397 26.171 37.2804 26.0303C37.421 25.8897 37.5 25.6989 37.5 25.5V21C37.5 20.8011 37.421 20.6103 37.2804 20.4697C37.1397 20.329 36.949 20.25 36.75 20.25ZM36 22.5H33.6C33.0495 22.4999 32.5128 22.6729 32.0659 22.9946C31.6191 23.3163 31.2847 23.7703 31.11 24.2925L30.9601 24.75H18.75V22.9125C18.75 22.9125 18.75 22.875 18.795 22.8525C18.811 22.8111 18.8235 22.7684 18.8325 22.725L19.8075 21.75H36V22.5ZM25.17 28.5H25.0725C24.9237 28.3547 24.8109 28.1765 24.7431 27.9799C24.6753 27.7832 24.6544 27.5734 24.6821 27.3672C24.7098 27.161 24.7853 26.9641 24.9026 26.7923C25.0198 26.6205 25.1756 26.4784 25.3575 26.3775C25.3202 26.9043 25.3684 27.4336 25.5 27.945C25.548 28.1346 25.6107 28.3202 25.6875 28.5H25.17ZM18.06 21.1425C18.0821 21.1045 18.1124 21.072 18.1488 21.0473C18.1851 21.0226 18.2266 21.0065 18.27 21C18.3145 20.9902 18.3606 20.9902 18.405 21L18 21.4275C17.9905 21.3784 17.9909 21.3279 18.0013 21.2789C18.0116 21.23 18.0315 21.1836 18.06 21.1425ZM23.07 30.285L22.65 32.79C22.6396 32.8483 22.6092 32.9011 22.564 32.9395C22.5189 32.9778 22.4618 32.9992 22.4025 33H19.95C19.9056 33.0005 19.8615 32.9913 19.821 32.9731C19.7804 32.9549 19.7442 32.9282 19.715 32.8947C19.6858 32.8612 19.6642 32.8217 19.6517 32.779C19.6391 32.7364 19.636 32.6915 19.6425 32.6475L20.1525 28.5825C20.2352 27.927 20.0781 27.2637 19.71 26.715L19.4025 26.25H23.505C23.4089 26.4257 23.3334 26.612 23.28 26.805C23.1736 27.1982 23.152 27.6094 23.2167 28.0116C23.2813 28.4137 23.4307 28.7975 23.655 29.1375C23.3467 29.4508 23.1424 29.8514 23.07 30.285ZM28.755 26.46C28.7852 26.5226 28.797 26.5925 28.789 26.6615C28.781 26.7305 28.7537 26.7959 28.7101 26.85L27.8251 27.96C27.6881 28.1271 27.5167 28.2627 27.3225 28.3575C26.9344 27.7278 26.778 26.9826 26.88 26.25H28.4175C28.4878 26.2499 28.5567 26.2695 28.6164 26.3066C28.6761 26.3437 28.7241 26.3969 28.755 26.46ZM36 24.75H32.5425C32.619 24.5306 32.7619 24.3404 32.9514 24.206C33.141 24.0715 33.3677 23.9996 33.6 24H36V24.75Z" fill="white"/>
</svg>
