<svg width="54" height="54" viewBox="0 0 54 54" fill="none" xmlns="http://www.w3.org/2000/svg">
<rect width="54" height="54" rx="15" fill="#2A2A2A"/>
<path d="M37.2 23.25C37.049 23.0453 36.8525 22.8784 36.6261 22.7626C36.3996 22.6468 36.1493 22.5851 35.895 22.5825C34.4956 22.6126 33.1341 22.1267 32.07 21.2175C31.6026 20.7903 31.2164 20.2822 30.93 19.7175C30.8086 19.4347 30.6082 19.1929 30.3527 19.0212C30.0973 18.8496 29.7977 18.7554 29.49 18.75H24.51C24.208 18.7508 23.9125 18.8372 23.6576 18.9992C23.4027 19.1611 23.199 19.392 23.07 19.665C22.7835 20.2297 22.3973 20.7378 21.93 21.165C20.8658 22.0742 19.5043 22.5601 18.105 22.53C17.8461 22.5386 17.5929 22.6083 17.3661 22.7335C17.1393 22.8586 16.9453 23.0356 16.8 23.25C16.6544 23.4436 16.558 23.6696 16.5188 23.9086C16.4796 24.1476 16.4989 24.3926 16.575 24.6225C16.7261 25.0988 16.9541 25.5473 17.25 25.95C17.8206 26.7067 18.604 27.276 19.5 27.585V28.5C19.3011 28.5 19.1103 28.579 18.9696 28.7197C18.829 28.8603 18.75 29.0511 18.75 29.25C18.75 30.6424 19.3031 31.9777 20.2877 32.9623C21.2722 33.9469 22.6076 34.5 24 34.5H30C31.3924 34.5 32.7277 33.9469 33.7123 32.9623C34.6968 31.9777 35.25 30.6424 35.25 29.25C35.25 29.0511 35.171 28.8603 35.0303 28.7197C34.8896 28.579 34.6989 28.5 34.5 28.5V27.585C35.3978 27.2756 36.1817 26.7033 36.75 25.9425C37.0521 25.5371 37.2829 25.083 37.4325 24.6C37.5037 24.3727 37.5198 24.1317 37.4793 23.8969C37.4389 23.6621 37.3431 23.4404 37.2 23.25ZM30 33H24C23.1355 33.0002 22.2975 32.7017 21.6278 32.155C20.9581 31.6083 20.4979 30.847 20.325 30H33.675C33.5021 30.847 33.0418 31.6083 32.3721 32.155C31.7025 32.7017 30.8645 33.0002 30 33ZM21 28.5V27.75H33V28.5H21ZM35.535 25.05C35.0891 25.6364 34.4613 26.0585 33.75 26.25H20.25C19.5431 26.0574 18.9187 25.6385 18.4725 25.0575C18.2573 24.7748 18.097 24.4543 18 24.1125C18.0135 24.0958 18.0307 24.0824 18.0502 24.0734C18.0697 24.0643 18.091 24.0597 18.1125 24.06C19.8795 24.0917 21.5953 23.4663 22.9275 22.305C23.5532 21.7475 24.063 21.0722 24.4275 20.3175C24.4359 20.3012 24.4476 20.2869 24.4618 20.2753C24.476 20.2637 24.4924 20.2551 24.51 20.25H29.49C29.5103 20.2531 29.5296 20.2608 29.5465 20.2725C29.5634 20.2842 29.5774 20.2996 29.5875 20.3175C29.952 21.0722 30.4617 21.7475 31.0875 22.305C32.4196 23.4663 34.1355 24.0917 35.9025 24.06C35.9297 24.0591 35.9565 24.0676 35.9783 24.0839C36.0001 24.1003 36.0157 24.1236 36.0225 24.15C35.9107 24.4748 35.746 24.779 35.535 25.05Z" fill="white"/>
<path d="M27 21C26.555 21 26.12 21.132 25.75 21.3792C25.38 21.6264 25.0916 21.9778 24.9213 22.389C24.751 22.8001 24.7064 23.2525 24.7932 23.689C24.8801 24.1254 25.0943 24.5263 25.409 24.841C25.7237 25.1557 26.1246 25.37 26.561 25.4568C26.9975 25.5436 27.4499 25.499 27.861 25.3287C28.2722 25.1584 28.6236 24.87 28.8708 24.5C29.118 24.13 29.25 23.695 29.25 23.25C29.25 22.6533 29.0129 22.081 28.591 21.659C28.169 21.2371 27.5967 21 27 21ZM27 24C26.8517 24 26.7067 23.956 26.5833 23.8736C26.46 23.7912 26.3639 23.6741 26.3071 23.537C26.2503 23.4 26.2355 23.2492 26.2644 23.1037C26.2934 22.9582 26.3648 22.8246 26.4697 22.7197C26.5746 22.6148 26.7082 22.5433 26.8537 22.5144C26.9992 22.4855 27.15 22.5003 27.287 22.5571C27.4241 22.6139 27.5412 22.71 27.6236 22.8333C27.706 22.9567 27.75 23.1017 27.75 23.25C27.75 23.4489 27.671 23.6397 27.5303 23.7803C27.3897 23.921 27.1989 24 27 24Z" fill="white"/>
</svg>
