<svg width="54" height="54" viewBox="0 0 54 54" fill="none" xmlns="http://www.w3.org/2000/svg">
<rect width="54" height="54" rx="15" fill="#2A2A2A"/>
<path d="M37.425 24.9226C37.3492 24.6369 37.2179 24.369 37.0385 24.1341C36.8591 23.8992 36.6353 23.702 36.3797 23.5536C36.1241 23.4053 35.8417 23.3087 35.5488 23.2695C35.2559 23.2303 34.9581 23.2492 34.6725 23.3251C34.2639 23.4356 33.8947 23.6592 33.6075 23.9701L30.3075 23.7151L28.8675 19.9651C29.0617 19.6755 29.1861 19.3447 29.2306 18.9988C29.2751 18.653 29.2386 18.3015 29.124 17.9722C29.0095 17.6428 28.8199 17.3446 28.5703 17.1011C28.3207 16.8576 28.0179 16.6754 27.6859 16.569C27.3538 16.4625 27.0015 16.4347 26.6569 16.4877C26.3122 16.5407 25.9846 16.6731 25.6999 16.8745C25.4152 17.0758 25.1812 17.3405 25.0163 17.6478C24.8515 17.9551 24.7603 18.2965 24.75 18.6451C24.7351 19.0748 24.8389 19.5004 25.05 19.8751L23.6775 23.7226L20.415 24.0001C20.0769 23.6245 19.6223 23.3737 19.1244 23.288C18.6264 23.2023 18.1141 23.2867 17.67 23.5276C17.2799 23.7414 16.9619 24.0661 16.7563 24.4607C16.5507 24.8552 16.4667 25.3018 16.5148 25.7441C16.563 26.1864 16.7412 26.6044 17.0269 26.9455C17.3126 27.2865 17.693 27.5352 18.12 27.6601C18.3247 27.7197 18.5368 27.7501 18.75 27.7501C18.9321 27.7502 19.1135 27.7276 19.29 27.6826L21.6975 30.0001L21.1725 33.0601C20.7792 33.1678 20.4227 33.3803 20.1408 33.6749C19.859 33.9696 19.6626 34.3353 19.5725 34.7329C19.4824 35.1306 19.502 35.5452 19.6293 35.9326C19.7566 36.3199 19.9867 36.6654 20.2951 36.9321C20.6035 37.1988 20.9786 37.3766 21.3803 37.4467C21.7819 37.5167 22.1951 37.4763 22.5756 37.3298C22.956 37.1832 23.2895 36.936 23.5404 36.6146C23.7913 36.2932 23.9502 35.9097 24 35.5051L27 33.9151L30.06 35.7076C30.1402 36.1003 30.324 36.4645 30.5922 36.7624C30.8605 37.0604 31.2034 37.2812 31.5856 37.4022C31.9678 37.5231 32.3754 37.5398 32.7662 37.4504C33.157 37.361 33.5168 37.1688 33.8084 36.8937C34.1 36.6186 34.3128 36.2706 34.4248 35.8856C34.5368 35.5007 34.5439 35.0928 34.4454 34.7042C34.347 34.3156 34.1464 33.9604 33.8646 33.6753C33.5828 33.3902 33.2299 33.1855 32.8425 33.0826L32.3025 30.0001L34.6875 27.6526C34.8694 27.7116 35.0588 27.7444 35.25 27.7501C35.6444 27.7511 36.0322 27.6484 36.3745 27.4522C36.7168 27.2561 37.0014 26.9734 37.2 26.6326C37.3509 26.3774 37.4486 26.0944 37.4873 25.8005C37.5259 25.5067 37.5047 25.208 37.425 24.9226ZM35.925 25.8751C35.8274 26.0473 35.6656 26.1741 35.475 26.2276C35.3792 26.252 35.2796 26.2574 35.1817 26.2432C35.0839 26.229 34.9899 26.1957 34.905 26.1451C34.8194 26.0955 34.7248 26.0633 34.6267 26.0504C34.5286 26.0375 34.429 26.0442 34.3335 26.07C34.238 26.0958 34.1485 26.1402 34.0702 26.2007C33.992 26.2612 33.9265 26.3366 33.8775 26.4226L33.81 26.4676L30.975 29.2501C30.887 29.3351 30.8212 29.4404 30.7833 29.5568C30.7454 29.6731 30.7365 29.797 30.7575 29.9176L31.44 33.9076C31.4703 34.0836 31.5626 34.2431 31.7001 34.3572C31.8376 34.4714 32.0113 34.5326 32.19 34.5301H32.25C32.3983 34.5301 32.5433 34.574 32.6667 34.6564C32.79 34.7389 32.8861 34.856 32.9429 34.993C32.9997 35.1301 33.0145 35.2809 32.9856 35.4264C32.9566 35.5719 32.8852 35.7055 32.7803 35.8104C32.6754 35.9153 32.5418 35.9867 32.3963 36.0156C32.2508 36.0446 32.1 36.0297 31.963 35.973C31.8259 35.9162 31.7088 35.8201 31.6264 35.6967C31.544 35.5734 31.5 35.4284 31.5 35.2801C31.5 35.2801 31.5 35.2201 31.5 35.1901C31.5035 35.1401 31.5035 35.09 31.5 35.0401C31.4804 34.9961 31.4579 34.9535 31.4325 34.9126C31.412 34.8699 31.3868 34.8297 31.3575 34.7926L31.245 34.6951L31.1775 34.6351L27.4275 32.4376C27.3135 32.3717 27.1841 32.3371 27.0525 32.3371C26.9208 32.3371 26.7915 32.3717 26.6775 32.4376L22.9275 34.4251C22.796 34.4974 22.6893 34.6076 22.6211 34.7413C22.5529 34.875 22.5264 35.0261 22.545 35.1751L22.5 35.2501C22.5 35.3984 22.456 35.5434 22.3736 35.6667C22.2912 35.7901 22.174 35.8862 22.037 35.943C21.8999 35.9997 21.7491 36.0146 21.6037 35.9856C21.4582 35.9567 21.3245 35.8853 21.2196 35.7804C21.1148 35.6755 21.0433 35.5419 21.0144 35.3964C20.9854 35.2509 21.0003 35.1001 21.0571 34.963C21.1138 34.826 21.21 34.7089 21.3333 34.6264C21.4566 34.544 21.6016 34.5001 21.75 34.5001H21.825C22.0037 34.5026 22.1774 34.4414 22.3149 34.3272C22.4524 34.2131 22.5446 34.0536 22.575 33.8776L23.25 29.8876C23.265 29.7711 23.2525 29.6527 23.2134 29.542C23.1743 29.4313 23.1098 29.3313 23.025 29.2501L19.995 26.2501C19.956 26.2174 19.9132 26.1897 19.8675 26.1676C19.8266 26.1422 19.784 26.1196 19.74 26.1001H19.6125H19.455H19.335L19.1775 26.1451C19.0029 26.2397 18.7979 26.2613 18.6075 26.2051C18.5058 26.1883 18.4086 26.1508 18.3221 26.0948C18.2355 26.0389 18.1615 25.9657 18.1045 25.8799C18.0475 25.794 18.0088 25.6973 17.9908 25.5958C17.9728 25.4944 17.9759 25.3903 18 25.2901C18.0239 25.1894 18.0685 25.0948 18.1307 25.0122C18.193 24.9296 18.2717 24.8608 18.3619 24.8101C18.452 24.7594 18.5517 24.7279 18.6546 24.7175C18.7576 24.7072 18.8615 24.7183 18.96 24.7501C19.055 24.7774 19.1437 24.8233 19.2209 24.8851C19.2982 24.9469 19.3624 25.0233 19.41 25.1101L19.5 25.2001C19.5358 25.2533 19.5759 25.3034 19.62 25.3501L19.7175 25.4101L19.8675 25.4851C19.9074 25.4893 19.9476 25.4893 19.9875 25.4851H20.1H20.1675L24.3225 25.1401C24.4649 25.1269 24.6005 25.0733 24.7135 24.9856C24.8264 24.8979 24.912 24.7798 24.96 24.6451L26.6325 19.9726C26.6361 19.9402 26.6361 19.9075 26.6325 19.8751C26.6398 19.8228 26.6398 19.7698 26.6325 19.7176C26.6391 19.6703 26.6391 19.6223 26.6325 19.5751C26.636 19.5301 26.636 19.485 26.6325 19.4401C26.6094 19.3925 26.5818 19.3473 26.55 19.3051C26.5353 19.2735 26.5177 19.2434 26.4975 19.2151C26.3645 19.0677 26.2954 18.8737 26.3053 18.6755C26.3151 18.4772 26.4031 18.291 26.55 18.1576C26.689 18.0495 26.8615 17.9937 27.0375 18.0001C27.1855 18.0076 27.328 18.0589 27.4469 18.1474C27.5658 18.2359 27.6558 18.3577 27.7056 18.4973C27.7553 18.637 27.7626 18.7882 27.7265 18.932C27.6903 19.0757 27.6124 19.2056 27.5025 19.3051C27.4608 19.3501 27.4255 19.4005 27.3975 19.4551C27.3975 19.4551 27.345 19.5076 27.3375 19.5451C27.3215 19.5865 27.309 19.6291 27.3 19.6726C27.2965 19.7225 27.2965 19.7726 27.3 19.8226C27.2964 19.855 27.2964 19.8877 27.3 19.9201C27.2927 19.9848 27.2927 20.0503 27.3 20.1151L29.0775 24.6826C29.1278 24.8144 29.2143 24.9295 29.3271 25.0144C29.4399 25.0993 29.5743 25.1506 29.715 25.1626L33.9 25.5001H33.9525H34.05H34.185L34.32 25.4326L34.425 25.3651C34.4687 25.3263 34.5089 25.2836 34.545 25.2376C34.5608 25.2117 34.5811 25.1888 34.605 25.1701C34.6793 25.0421 34.7897 24.9389 34.9225 24.8736C35.0553 24.8082 35.2045 24.7836 35.3512 24.8029C35.4979 24.8221 35.6357 24.8843 35.7471 24.9817C35.8586 25.0791 35.9387 25.2072 35.9775 25.3501C36.015 25.5293 35.9856 25.716 35.895 25.8751H35.925Z" fill="white"/>
<path d="M27 25.5C26.4067 25.5 25.8266 25.6759 25.3333 26.0056C24.8399 26.3352 24.4554 26.8038 24.2284 27.352C24.0013 27.9001 23.9419 28.5033 24.0576 29.0853C24.1734 29.6672 24.4591 30.2018 24.8787 30.6213C25.2982 31.0409 25.8328 31.3266 26.4147 31.4424C26.9967 31.5581 27.5999 31.4987 28.1481 31.2716C28.6962 31.0446 29.1648 30.6601 29.4944 30.1667C29.8241 29.6734 30 29.0933 30 28.5C30 27.7044 29.6839 26.9413 29.1213 26.3787C28.5587 25.8161 27.7957 25.5 27 25.5ZM27 30C26.7033 30 26.4133 29.912 26.1666 29.7472C25.92 29.5824 25.7277 29.3481 25.6142 29.074C25.5007 28.7999 25.4709 28.4983 25.5288 28.2074C25.5867 27.9164 25.7296 27.6491 25.9393 27.4393C26.1491 27.2296 26.4164 27.0867 26.7074 27.0288C26.9983 26.9709 27.2999 27.0006 27.574 27.1142C27.8481 27.2277 28.0824 27.42 28.2472 27.6666C28.412 27.9133 28.5 28.2033 28.5 28.5C28.5 28.8978 28.342 29.2794 28.0607 29.5607C27.7794 29.842 27.3978 30 27 30Z" fill="white"/>
</svg>
