<svg width="54" height="54" viewBox="0 0 54 54" fill="none" xmlns="http://www.w3.org/2000/svg">
<rect width="54" height="54" rx="15" fill="#2A2A2A"/>
<path d="M34.98 20.4225L30.48 16.6725C30.3451 16.5607 30.1752 16.4997 30 16.5H20.8425C20.2875 16.5 19.7553 16.7205 19.3629 17.1129C18.9705 17.5053 18.75 18.0375 18.75 18.5925V35.4075C18.75 35.9625 18.9705 36.4947 19.3629 36.8871C19.7553 37.2795 20.2875 37.5 20.8425 37.5H33.1575C33.7125 37.5 34.2447 37.2795 34.6371 36.8871C35.0295 36.4947 35.25 35.9625 35.25 35.4075V21C35.2502 20.8898 35.2261 20.7809 35.1794 20.6811C35.1327 20.5813 35.0647 20.493 34.98 20.4225ZM33.33 21H30V18.225L33.33 21ZM33.75 35.4075C33.75 35.5646 33.6876 35.7153 33.5765 35.8265C33.4653 35.9376 33.3146 36 33.1575 36H20.8425C20.6854 36 20.5347 35.9376 20.4235 35.8265C20.3124 35.7153 20.25 35.5646 20.25 35.4075V18.5925C20.25 18.4354 20.3124 18.2847 20.4235 18.1735C20.5347 18.0624 20.6854 18 20.8425 18H28.5V21.75C28.5 21.9489 28.579 22.1397 28.7197 22.2803C28.8603 22.421 29.0511 22.5 29.25 22.5H33.75V35.4075Z" fill="white"/>
<path d="M28.7324 24.855C28.6998 24.6178 28.5822 24.4004 28.4016 24.2432C28.2209 24.086 27.9894 23.9996 27.7499 24H26.3324C26.0927 24 25.8612 24.0877 25.6816 24.2466C25.502 24.4055 25.3867 24.6245 25.3574 24.8625C25.3525 25.1014 25.2702 25.3322 25.1227 25.5202C24.9753 25.7083 24.7708 25.8433 24.5399 25.905C24.4174 25.8897 24.2991 25.85 24.1922 25.7882C24.0852 25.7263 23.9918 25.6436 23.9174 25.545C23.8248 25.4312 23.7008 25.3472 23.5608 25.3032C23.4208 25.2592 23.271 25.2572 23.1299 25.2975C22.9869 25.3382 22.8591 25.4206 22.763 25.5341C22.6668 25.6476 22.6066 25.7872 22.5899 25.935C22.5374 26.445 22.1024 30.9675 25.0799 32.985C25.6278 33.3555 26.2453 33.6107 26.8949 33.735H27.0449H27.1874C27.8371 33.6107 28.4546 33.3555 29.0024 32.985C32.0024 30.9675 31.5524 26.445 31.4924 25.935C31.4761 25.7881 31.4167 25.6492 31.3217 25.536C31.2267 25.4227 31.1003 25.34 30.9584 25.2983C30.8166 25.2567 30.6656 25.2578 30.5244 25.3017C30.3832 25.3456 30.2582 25.4303 30.1649 25.545C30.0939 25.647 30.0013 25.7321 29.8938 25.7943C29.7862 25.8565 29.6662 25.8943 29.5424 25.905C29.3112 25.8427 29.1067 25.7062 28.9604 25.5166C28.8141 25.3269 28.734 25.0945 28.7324 24.855ZM29.9999 27.345C29.9474 28.68 29.6174 30.7425 28.1324 31.7475C27.7914 31.9742 27.4131 32.1392 27.0149 32.235C26.6139 32.1408 26.2329 31.9757 25.8899 31.7475C24.3899 30.7425 24.0749 28.68 24.0224 27.345C24.2034 27.3925 24.3905 27.4127 24.5774 27.405C25.0931 27.3533 25.5799 27.142 25.9698 26.8005C26.3596 26.459 26.6333 26.0044 26.7524 25.5H27.3374C27.4514 26.0004 27.7185 26.4528 28.1016 26.7942C28.4847 27.1357 28.9648 27.3492 29.4749 27.405C29.6519 27.4098 29.8286 27.3896 29.9999 27.345Z" fill="white"/>
<path d="M26.25 28.5C26.0511 28.5 25.8603 28.579 25.7197 28.7197C25.579 28.8603 25.5 29.0511 25.5 29.25C25.5 29.4489 25.579 29.6397 25.7197 29.7803C25.8603 29.921 26.0511 30 26.25 30H27.75C27.9489 30 28.1397 29.921 28.2803 29.7803C28.421 29.6397 28.5 29.4489 28.5 29.25C28.5 29.0511 28.421 28.8603 28.2803 28.7197C28.1397 28.579 27.9489 28.5 27.75 28.5H26.25Z" fill="white"/>
</svg>
