<svg width="286" height="166" viewBox="0 0 286 166" fill="none" xmlns="http://www.w3.org/2000/svg">
<g filter="url(#filter0_d_116_556)">
<path d="M25 50.3324C25 33.6761 25 25.3479 30.1744 20.1735C35.3489 14.999 43.677 14.999 60.3333 14.999H225.667C242.323 14.999 250.651 14.999 255.826 20.1735C261 25.3479 261 33.6761 261 50.3324V95.6657C261 112.322 261 120.65 255.826 125.825C250.651 130.999 242.323 130.999 225.667 130.999H60.3333C43.677 130.999 35.3489 130.999 30.1744 125.825C25 120.65 25 112.322 25 95.6657V50.3324Z" fill="white"/>
</g>
<path d="M68.5362 63.7583C66.9921 63.3076 66.0938 61.6842 66.6769 60.185C69.4047 53.171 74.431 47.242 80.9931 43.3761C88.3989 39.0133 97.2114 37.602 105.658 39.4263C114.104 41.2505 121.558 46.1749 126.519 53.2088C130.914 59.4396 133.065 66.9161 132.677 74.4329C132.595 76.0423 131.105 77.155 129.509 76.9279C127.92 76.7017 126.83 75.231 126.885 73.627C127.093 67.5534 125.308 61.5359 121.755 56.4996C117.639 50.6641 111.456 46.5787 104.448 45.0653C97.4411 43.5519 90.1301 44.7227 83.9861 48.3422C78.6864 51.4643 74.5942 56.2086 72.2931 61.8262C71.6834 63.3148 70.0804 64.2091 68.5362 63.7583Z" fill="#87D68D" fill-opacity="0.4"/>
<path d="M73.6356 53.8291C72.3147 52.8266 70.4185 53.0786 69.5382 54.4838C65.6655 60.6662 63.8967 67.9776 64.5445 75.3305C65.2808 83.6888 69.0876 91.5102 75.2325 97.2903C81.3775 103.07 89.4266 106.401 97.8315 106.641C106.236 106.881 114.404 104.014 120.762 98.5917C127.12 93.169 131.22 85.5736 132.274 77.2665C133.327 68.9594 131.26 60.5274 126.469 53.5925C121.678 46.6576 114.502 41.7096 106.322 39.7003C99.1288 37.9336 91.606 38.5485 84.8787 41.405C83.3468 42.0554 82.8036 43.8989 83.5995 45.3605C84.387 46.8065 86.1889 47.3299 87.7154 46.7129C93.1458 44.518 99.1737 44.076 104.944 45.4933C111.688 47.1497 117.603 51.2287 121.553 56.9455C125.502 62.6624 127.206 69.6134 126.338 76.4614C125.469 83.3094 122.089 89.5707 116.848 94.041C111.606 98.5113 104.874 100.875 97.945 100.677C91.0164 100.479 84.381 97.7331 79.3154 92.9682C74.2497 88.2033 71.1116 81.7556 70.5046 74.8654C69.9862 68.9813 71.3451 63.1294 74.3455 58.1299C75.1988 56.7081 74.9566 54.8316 73.6356 53.8291Z" fill="#029837" fill-opacity="0.7"/>
<path d="M85.5407 66.4673C86.0921 66.4714 86.6354 66.572 87.1707 66.7692C87.706 66.9664 88.1889 67.2884 88.6196 67.7351C89.0542 68.1818 89.4004 68.7855 89.6579 69.5462C89.9195 70.3028 90.0523 71.2446 90.0564 72.3714C90.0564 73.4541 89.9477 74.418 89.7304 75.2631C89.513 76.1043 89.2011 76.8146 88.7946 77.3942C88.3922 77.9737 87.9032 78.4144 87.3277 78.7163C86.7521 79.0181 86.1042 79.169 85.3838 79.169C84.6473 79.169 83.9933 79.0241 83.4218 78.7344C82.8503 78.4446 82.3854 78.0442 82.0272 77.533C81.6691 77.0179 81.4457 76.4263 81.3571 75.7582H83.1984C83.3191 76.2894 83.5646 76.7201 83.9349 77.0501C84.3092 77.3761 84.7922 77.5391 85.3838 77.5391C86.2893 77.5391 86.9956 77.1446 87.5027 76.3558C88.0098 75.563 88.2654 74.4562 88.2694 73.0355H88.1728C87.9636 73.3816 87.702 73.6795 87.388 73.929C87.0781 74.1785 86.73 74.3717 86.3437 74.5085C85.9573 74.6454 85.5448 74.7138 85.1061 74.7138C84.3937 74.7138 83.7458 74.5387 83.1622 74.1886C82.5786 73.8384 82.1138 73.3575 81.7677 72.7457C81.4215 72.134 81.2485 71.4357 81.2485 70.6509C81.2485 69.8701 81.4256 69.1618 81.7797 68.5259C82.1379 67.89 82.637 67.387 83.2769 67.0167C83.9208 66.6424 84.6754 66.4593 85.5407 66.4673ZM85.5468 68.0369C85.0759 68.0369 84.6513 68.1536 84.273 68.3871C83.8987 68.6165 83.6029 68.9284 83.3856 69.3228C83.1682 69.7132 83.0596 70.1478 83.0596 70.6268C83.0596 71.1057 83.1642 71.5404 83.3735 71.9308C83.5868 72.3171 83.8766 72.625 84.2428 72.8544C84.6131 73.0798 85.0356 73.1925 85.5106 73.1925C85.8647 73.1925 86.1947 73.1241 86.5006 72.9872C86.8065 72.8504 87.0741 72.6612 87.3035 72.4197C87.5329 72.1742 87.712 71.8965 87.8408 71.5866C87.9696 71.2768 88.034 70.9508 88.034 70.6087C88.034 70.1539 87.9253 69.7313 87.708 69.3409C87.4947 68.9505 87.2009 68.6366 86.8266 68.3991C86.4523 68.1577 86.0257 68.0369 85.5468 68.0369ZM96.3715 79.2053C95.4177 79.2012 94.6027 78.9497 93.9266 78.4506C93.2504 77.9516 92.7333 77.2251 92.3751 76.2713C92.0169 75.3175 91.8378 74.1684 91.8378 72.8242C91.8378 71.484 92.0169 70.339 92.3751 69.3892C92.7373 68.4394 93.2565 67.715 93.9326 67.2159C94.6128 66.7169 95.4258 66.4673 96.3715 66.4673C97.3173 66.4673 98.1283 66.7189 98.8044 67.2219C99.4806 67.721 99.9977 68.4454 100.356 69.3952C100.718 70.341 100.899 71.484 100.899 72.8242C100.899 74.1725 100.72 75.3235 100.362 76.2773C100.004 77.2272 99.4866 77.9536 98.8105 78.4567C98.1343 78.9557 97.3213 79.2053 96.3715 79.2053ZM96.3715 77.5934C97.2087 77.5934 97.8627 77.1849 98.3335 76.3679C98.8084 75.5509 99.0459 74.3697 99.0459 72.8242C99.0459 71.7979 98.9372 70.9306 98.7199 70.2223C98.5066 69.5099 98.1987 68.9706 97.7963 68.6044C97.3978 68.2341 96.9229 68.049 96.3715 68.049C95.5384 68.049 94.8844 68.4595 94.4095 69.2805C93.9346 70.1016 93.6952 71.2828 93.6911 72.8242C93.6911 73.8545 93.7978 74.7259 94.0111 75.4382C94.2284 76.1465 94.5363 76.6838 94.9347 77.0501C95.3332 77.4123 95.8121 77.5934 96.3715 77.5934ZM109.324 76.6818V76.0298C109.324 75.563 109.421 75.1364 109.614 74.75C109.811 74.3596 110.097 74.0477 110.471 73.8143C110.85 73.5768 111.306 73.4581 111.842 73.4581C112.389 73.4581 112.848 73.5748 113.218 73.8082C113.588 74.0417 113.868 74.3536 114.057 74.744C114.25 75.1344 114.347 75.563 114.347 76.0298V76.6818C114.347 77.1487 114.25 77.5773 114.057 77.9677C113.864 78.354 113.58 78.666 113.206 78.9034C112.836 79.1368 112.381 79.2536 111.842 79.2536C111.298 79.2536 110.84 79.1368 110.465 78.9034C110.091 78.666 109.807 78.354 109.614 77.9677C109.421 77.5773 109.324 77.1487 109.324 76.6818ZM110.731 76.0298V76.6818C110.731 77.0279 110.813 77.3419 110.978 77.6236C111.143 77.9053 111.431 78.0462 111.842 78.0462C112.248 78.0462 112.532 77.9053 112.693 77.6236C112.854 77.3419 112.934 77.0279 112.934 76.6818V76.0298C112.934 75.6837 112.856 75.3698 112.699 75.0881C112.546 74.8063 112.26 74.6655 111.842 74.6655C111.439 74.6655 111.154 74.8063 110.984 75.0881C110.815 75.3698 110.731 75.6837 110.731 76.0298ZM103.106 69.6065V68.9545C103.106 68.4877 103.203 68.0591 103.396 67.6687C103.593 67.2783 103.879 66.9664 104.253 66.733C104.632 66.4995 105.088 66.3828 105.624 66.3828C106.171 66.3828 106.63 66.4995 107 66.733C107.37 66.9664 107.65 67.2783 107.839 67.6687C108.028 68.0591 108.123 68.4877 108.123 68.9545V69.6065C108.123 70.0734 108.026 70.502 107.833 70.8924C107.644 71.2788 107.362 71.5907 106.988 71.8281C106.618 72.0616 106.163 72.1783 105.624 72.1783C105.076 72.1783 104.616 72.0616 104.241 71.8281C103.871 71.5907 103.589 71.2788 103.396 70.8924C103.203 70.502 103.106 70.0734 103.106 69.6065ZM104.519 68.9545V69.6065C104.519 69.9527 104.599 70.2666 104.76 70.5483C104.925 70.83 105.213 70.9709 105.624 70.9709C106.026 70.9709 106.308 70.83 106.469 70.5483C106.634 70.2666 106.716 69.9527 106.716 69.6065V68.9545C106.716 68.6084 106.638 68.2945 106.481 68.0128C106.324 67.7311 106.038 67.5902 105.624 67.5902C105.221 67.5902 104.935 67.7311 104.766 68.0128C104.601 68.2945 104.519 68.6084 104.519 68.9545ZM103.68 79L112.18 66.6364H113.623L105.123 79H103.68Z" fill="#000033" fill-opacity="0.85"/>
<path d="M152.644 63.264C151.515 63.264 150.525 63.066 149.674 62.67C148.823 62.274 148.156 61.7093 147.672 60.976C147.203 60.2427 146.961 59.37 146.946 58.358H149.41C149.425 59.1793 149.711 59.876 150.268 60.448C150.825 61.02 151.61 61.306 152.622 61.306C153.517 61.306 154.213 61.0933 154.712 60.668C155.225 60.228 155.482 59.6707 155.482 58.996C155.482 58.4533 155.357 58.0133 155.108 57.676C154.873 57.3387 154.543 57.06 154.118 56.84C153.707 56.62 153.231 56.422 152.688 56.246C152.145 56.07 151.573 55.8793 150.972 55.674C149.784 55.278 148.889 54.7647 148.288 54.134C147.701 53.5033 147.408 52.6747 147.408 51.648C147.393 50.7827 147.591 50.0273 148.002 49.382C148.427 48.7367 149.014 48.238 149.762 47.886C150.525 47.5193 151.412 47.336 152.424 47.336C153.421 47.336 154.294 47.5193 155.042 47.886C155.805 48.2527 156.399 48.766 156.824 49.426C157.249 50.0713 157.469 50.8267 157.484 51.692H155.02C155.02 51.296 154.917 50.922 154.712 50.57C154.507 50.2033 154.206 49.9027 153.81 49.668C153.414 49.4333 152.93 49.316 152.358 49.316C151.625 49.3013 151.016 49.4847 150.532 49.866C150.063 50.2473 149.828 50.7753 149.828 51.45C149.828 52.0513 150.004 52.5133 150.356 52.836C150.708 53.1587 151.192 53.43 151.808 53.65C152.424 53.8553 153.128 54.0973 153.92 54.376C154.683 54.6253 155.365 54.926 155.966 55.278C156.567 55.63 157.044 56.092 157.396 56.664C157.763 57.236 157.946 57.962 157.946 58.842C157.946 59.6193 157.748 60.3453 157.352 61.02C156.956 61.68 156.362 62.2227 155.57 62.648C154.778 63.0587 153.803 63.264 152.644 63.264ZM164.214 63.264C162.894 63.264 161.852 62.8533 161.09 62.032C160.342 61.2107 159.968 59.986 159.968 58.358V52.088H162.3V58.116C162.3 60.228 163.165 61.284 164.896 61.284C165.761 61.284 166.472 60.976 167.03 60.36C167.587 59.744 167.866 58.864 167.866 57.72V52.088H170.198V63H168.13L167.954 61.086C167.616 61.7607 167.118 62.296 166.458 62.692C165.812 63.0733 165.064 63.264 164.214 63.264ZM178.114 63.264C177.043 63.264 176.083 63.022 175.232 62.538C174.396 62.054 173.736 61.3867 173.252 60.536C172.783 59.6707 172.548 58.6733 172.548 57.544C172.548 56.4147 172.783 55.4247 173.252 54.574C173.736 53.7087 174.396 53.034 175.232 52.55C176.083 52.066 177.043 51.824 178.114 51.824C179.463 51.824 180.593 52.176 181.502 52.88C182.426 53.584 183.02 54.5373 183.284 55.74H180.842C180.695 55.1387 180.373 54.6693 179.874 54.332C179.375 53.9947 178.789 53.826 178.114 53.826C177.542 53.826 177.014 53.9727 176.53 54.266C176.046 54.5447 175.657 54.9627 175.364 55.52C175.071 56.0627 174.924 56.7373 174.924 57.544C174.924 58.3507 175.071 59.0327 175.364 59.59C175.657 60.1327 176.046 60.5507 176.53 60.844C177.014 61.1373 177.542 61.284 178.114 61.284C178.789 61.284 179.375 61.1153 179.874 60.778C180.373 60.4407 180.695 59.964 180.842 59.348H183.284C183.035 60.5213 182.448 61.4673 181.524 62.186C180.6 62.9047 179.463 63.264 178.114 63.264ZM190.763 63.264C189.693 63.264 188.732 63.022 187.881 62.538C187.045 62.054 186.385 61.3867 185.901 60.536C185.432 59.6707 185.197 58.6733 185.197 57.544C185.197 56.4147 185.432 55.4247 185.901 54.574C186.385 53.7087 187.045 53.034 187.881 52.55C188.732 52.066 189.693 51.824 190.763 51.824C192.113 51.824 193.242 52.176 194.151 52.88C195.075 53.584 195.669 54.5373 195.933 55.74H193.491C193.345 55.1387 193.022 54.6693 192.523 54.332C192.025 53.9947 191.438 53.826 190.763 53.826C190.191 53.826 189.663 53.9727 189.179 54.266C188.695 54.5447 188.307 54.9627 188.013 55.52C187.72 56.0627 187.573 56.7373 187.573 57.544C187.573 58.3507 187.72 59.0327 188.013 59.59C188.307 60.1327 188.695 60.5507 189.179 60.844C189.663 61.1373 190.191 61.284 190.763 61.284C191.438 61.284 192.025 61.1153 192.523 60.778C193.022 60.4407 193.345 59.964 193.491 59.348H195.933C195.684 60.5213 195.097 61.4673 194.173 62.186C193.249 62.9047 192.113 63.264 190.763 63.264ZM203.346 63.264C202.276 63.264 201.322 63.0293 200.486 62.56C199.665 62.076 199.02 61.4087 198.55 60.558C198.081 59.7073 197.846 58.7173 197.846 57.588C197.846 56.444 198.074 55.4393 198.528 54.574C198.998 53.7087 199.643 53.034 200.464 52.55C201.3 52.066 202.268 51.824 203.368 51.824C204.439 51.824 205.37 52.066 206.162 52.55C206.954 53.0193 207.57 53.65 208.01 54.442C208.45 55.234 208.67 56.1067 208.67 57.06C208.67 57.2067 208.663 57.368 208.648 57.544C208.648 57.7053 208.641 57.8887 208.626 58.094H200.134C200.208 59.15 200.552 59.9567 201.168 60.514C201.799 61.0567 202.525 61.328 203.346 61.328C204.006 61.328 204.556 61.1813 204.996 60.888C205.451 60.58 205.788 60.1693 206.008 59.656H208.34C208.047 60.6827 207.46 61.5407 206.58 62.23C205.715 62.9193 204.637 63.264 203.346 63.264ZM203.346 53.738C202.569 53.738 201.88 53.9727 201.278 54.442C200.677 54.8967 200.31 55.586 200.178 56.51H206.338C206.294 55.6593 205.994 54.9847 205.436 54.486C204.879 53.9873 204.182 53.738 203.346 53.738ZM215.226 63.264C213.847 63.264 212.711 62.9267 211.816 62.252C210.921 61.5773 210.408 60.6827 210.276 59.568H212.63C212.747 60.0667 213.026 60.4993 213.466 60.866C213.906 61.218 214.485 61.394 215.204 61.394C215.908 61.394 216.421 61.2473 216.744 60.954C217.067 60.6607 217.228 60.3233 217.228 59.942C217.228 59.3847 217.001 59.0107 216.546 58.82C216.106 58.6147 215.49 58.4313 214.698 58.27C214.082 58.138 213.466 57.962 212.85 57.742C212.249 57.522 211.743 57.214 211.332 56.818C210.936 56.4073 210.738 55.8573 210.738 55.168C210.738 54.2147 211.105 53.4227 211.838 52.792C212.571 52.1467 213.598 51.824 214.918 51.824C216.135 51.824 217.118 52.1173 217.866 52.704C218.629 53.2907 219.076 54.1193 219.208 55.19H216.964C216.891 54.7207 216.671 54.354 216.304 54.09C215.952 53.826 215.475 53.694 214.874 53.694C214.287 53.694 213.833 53.8187 213.51 54.068C213.187 54.3027 213.026 54.6107 213.026 54.992C213.026 55.3733 213.246 55.674 213.686 55.894C214.141 56.114 214.735 56.312 215.468 56.488C216.201 56.6493 216.876 56.84 217.492 57.06C218.123 57.2653 218.629 57.5733 219.01 57.984C219.391 58.3947 219.582 58.996 219.582 59.788C219.597 60.7853 219.208 61.614 218.416 62.274C217.639 62.934 216.575 63.264 215.226 63.264ZM226.264 63.264C224.885 63.264 223.749 62.9267 222.854 62.252C221.959 61.5773 221.446 60.6827 221.314 59.568H223.668C223.785 60.0667 224.064 60.4993 224.504 60.866C224.944 61.218 225.523 61.394 226.242 61.394C226.946 61.394 227.459 61.2473 227.782 60.954C228.105 60.6607 228.266 60.3233 228.266 59.942C228.266 59.3847 228.039 59.0107 227.584 58.82C227.144 58.6147 226.528 58.4313 225.736 58.27C225.12 58.138 224.504 57.962 223.888 57.742C223.287 57.522 222.781 57.214 222.37 56.818C221.974 56.4073 221.776 55.8573 221.776 55.168C221.776 54.2147 222.143 53.4227 222.876 52.792C223.609 52.1467 224.636 51.824 225.956 51.824C227.173 51.824 228.156 52.1173 228.904 52.704C229.667 53.2907 230.114 54.1193 230.246 55.19H228.002C227.929 54.7207 227.709 54.354 227.342 54.09C226.99 53.826 226.513 53.694 225.912 53.694C225.325 53.694 224.871 53.8187 224.548 54.068C224.225 54.3027 224.064 54.6107 224.064 54.992C224.064 55.3733 224.284 55.674 224.724 55.894C225.179 56.114 225.773 56.312 226.506 56.488C227.239 56.6493 227.914 56.84 228.53 57.06C229.161 57.2653 229.667 57.5733 230.048 57.984C230.429 58.3947 230.62 58.996 230.62 59.788C230.635 60.7853 230.246 61.614 229.454 62.274C228.677 62.934 227.613 63.264 226.264 63.264ZM147.562 96V80.6H152.864C154.081 80.6 155.079 80.8053 155.856 81.216C156.648 81.6267 157.235 82.184 157.616 82.888C157.997 83.5773 158.188 84.3473 158.188 85.198C158.188 86.1513 157.931 87.0167 157.418 87.794C156.919 88.5713 156.135 89.1287 155.064 89.466L158.342 96H155.636L152.644 89.796H149.894V96H147.562ZM149.894 88.036H152.732C153.788 88.036 154.558 87.7793 155.042 87.266C155.541 86.7527 155.79 86.0853 155.79 85.264C155.79 84.4427 155.548 83.79 155.064 83.306C154.58 82.8073 153.795 82.558 152.71 82.558H149.894V88.036ZM165.077 96.264C164.006 96.264 163.053 96.0293 162.217 95.56C161.395 95.076 160.75 94.4087 160.281 93.558C159.811 92.7073 159.577 91.7173 159.577 90.588C159.577 89.444 159.804 88.4393 160.259 87.574C160.728 86.7087 161.373 86.034 162.195 85.55C163.031 85.066 163.999 84.824 165.099 84.824C166.169 84.824 167.101 85.066 167.893 85.55C168.685 86.0193 169.301 86.65 169.741 87.442C170.181 88.234 170.401 89.1067 170.401 90.06C170.401 90.2067 170.393 90.368 170.379 90.544C170.379 90.7053 170.371 90.8887 170.357 91.094H161.865C161.938 92.15 162.283 92.9567 162.899 93.514C163.529 94.0567 164.255 94.328 165.077 94.328C165.737 94.328 166.287 94.1813 166.727 93.888C167.181 93.58 167.519 93.1693 167.739 92.656H170.071C169.777 93.6827 169.191 94.5407 168.311 95.23C167.445 95.9193 166.367 96.264 165.077 96.264ZM165.077 86.738C164.299 86.738 163.61 86.9727 163.009 87.442C162.407 87.8967 162.041 88.586 161.909 89.51H168.069C168.025 88.6593 167.724 87.9847 167.167 87.486C166.609 86.9873 165.913 86.738 165.077 86.738ZM176.956 96.264C175.578 96.264 174.441 95.9267 173.546 95.252C172.652 94.5773 172.138 93.6827 172.006 92.568H174.36C174.478 93.0667 174.756 93.4993 175.196 93.866C175.636 94.218 176.216 94.394 176.934 94.394C177.638 94.394 178.152 94.2473 178.474 93.954C178.797 93.6607 178.958 93.3233 178.958 92.942C178.958 92.3847 178.731 92.0107 178.276 91.82C177.836 91.6147 177.22 91.4313 176.428 91.27C175.812 91.138 175.196 90.962 174.58 90.742C173.979 90.522 173.473 90.214 173.062 89.818C172.666 89.4073 172.468 88.8573 172.468 88.168C172.468 87.2147 172.835 86.4227 173.568 85.792C174.302 85.1467 175.328 84.824 176.648 84.824C177.866 84.824 178.848 85.1173 179.596 85.704C180.359 86.2907 180.806 87.1193 180.938 88.19H178.694C178.621 87.7207 178.401 87.354 178.034 87.09C177.682 86.826 177.206 86.694 176.604 86.694C176.018 86.694 175.563 86.8187 175.24 87.068C174.918 87.3027 174.756 87.6107 174.756 87.992C174.756 88.3733 174.976 88.674 175.416 88.894C175.871 89.114 176.465 89.312 177.198 89.488C177.932 89.6493 178.606 89.84 179.222 90.06C179.853 90.2653 180.359 90.5733 180.74 90.984C181.122 91.3947 181.312 91.996 181.312 92.788C181.327 93.7853 180.938 94.614 180.146 95.274C179.369 95.934 178.306 96.264 176.956 96.264ZM187.664 96.264C186.344 96.264 185.303 95.8533 184.54 95.032C183.792 94.2107 183.418 92.986 183.418 91.358V85.088H185.75V91.116C185.75 93.228 186.616 94.284 188.346 94.284C189.212 94.284 189.923 93.976 190.48 93.36C191.038 92.744 191.316 91.864 191.316 90.72V85.088H193.648V96H191.58L191.404 94.086C191.067 94.7607 190.568 95.296 189.908 95.692C189.263 96.0733 188.515 96.264 187.664 96.264ZM196.395 96V80.16H198.727V96H196.395ZM206.036 96C204.965 96 204.115 95.7433 203.484 95.23C202.853 94.702 202.538 93.7707 202.538 92.436V87.046H200.668V85.088H202.538L202.824 82.316H204.87V85.088H207.95V87.046H204.87V92.436C204.87 93.0373 204.995 93.4553 205.244 93.69C205.508 93.91 205.955 94.02 206.586 94.02H207.84V96H206.036Z" fill="#000033" fill-opacity="0.85"/>
<defs>
<filter id="filter0_d_116_556" x="0" y="-0.000976562" width="286" height="166" filterUnits="userSpaceOnUse" color-interpolation-filters="sRGB">
<feFlood flood-opacity="0" result="BackgroundImageFix"/>
<feColorMatrix in="SourceAlpha" type="matrix" values="0 0 0 0 0 0 0 0 0 0 0 0 0 0 0 0 0 0 127 0" result="hardAlpha"/>
<feOffset dy="10"/>
<feGaussianBlur stdDeviation="12.5"/>
<feComposite in2="hardAlpha" operator="out"/>
<feColorMatrix type="matrix" values="0 0 0 0 0.00784314 0 0 0 0 0.576471 0 0 0 0 0.203922 0 0 0 0.1 0"/>
<feBlend mode="normal" in2="BackgroundImageFix" result="effect1_dropShadow_116_556"/>
<feBlend mode="normal" in="SourceGraphic" in2="effect1_dropShadow_116_556" result="shape"/>
</filter>
</defs>
</svg>
