<svg width="64" height="64" viewBox="0 0 64 64" fill="none" xmlns="http://www.w3.org/2000/svg">
<rect width="64" height="64" rx="20" fill="#E6B80B" fill-opacity="0.8"/>
<g clip-path="url(#clip0_116_154)">
<path d="M51.6736 23.0937C51.4411 22.7637 51.0624 22.5662 50.6586 22.5662H24.1299L22.1211 15.6412C21.3336 12.9137 19.4624 12.62 18.6949 12.62H13.3399C12.6536 12.62 12.0986 13.1762 12.0986 13.8612C12.0986 14.5462 12.6549 15.1025 13.3399 15.1025H18.6936C18.8636 15.1025 19.3799 15.1025 19.7324 16.32L26.6411 41.7087C26.7911 42.2437 27.2799 42.6137 27.8361 42.6137H44.7099C45.2336 42.6137 45.7011 42.2862 45.8774 41.7925L51.8249 24.2262C51.9624 23.8462 51.9049 23.4225 51.6724 23.0925L51.6736 23.0937ZM43.8374 40.1325H28.7799L24.8286 25.05H48.8949L43.8374 40.1325ZM41.3749 45.13C39.6486 45.13 38.2499 46.5287 38.2499 48.255C38.2499 49.9812 39.6486 51.38 41.3749 51.38C43.1011 51.38 44.4999 49.9812 44.4999 48.255C44.4999 46.5287 43.1011 45.13 41.3749 45.13ZM30.1249 45.13C28.3986 45.13 26.9999 46.5287 26.9999 48.255C26.9999 49.9812 28.3986 51.38 30.1249 51.38C31.8511 51.38 33.2499 49.9812 33.2499 48.255C33.2499 46.5287 31.8511 45.13 30.1249 45.13Z" fill="white"/>
</g>
<defs>
<clipPath id="clip0_116_154">
<rect width="40" height="40" fill="white" transform="translate(12 12)"/>
</clipPath>
</defs>
</svg>
