<svg width="64" height="64" viewBox="0 0 64 64" fill="none" xmlns="http://www.w3.org/2000/svg">
<rect width="64" height="64" rx="20" fill="#E6B80B" fill-opacity="0.8"/>
<g clip-path="url(#clip0_116_131)">
<path d="M35.3001 51.1325C35.0679 50.832 34.9246 50.4724 34.8866 50.0945C34.8486 49.7167 34.9174 49.3357 35.0851 48.995C35.5251 48.14 35.6976 47.1625 35.5851 46.2C35.4929 45.5132 35.266 44.8514 34.9176 44.2525C34.5736 43.6614 34.1135 43.146 33.5651 42.7375C31.6959 41.3327 30.3843 39.3117 29.8626 37.0325C25.5926 42.63 27.2301 45.8075 29.2751 48.6075C29.5148 48.9357 29.6411 49.3332 29.6348 49.7396C29.6285 50.146 29.4899 50.5394 29.2401 50.86C28.9854 51.1844 28.6438 51.4298 28.2551 51.5675C27.8708 51.7024 27.4555 51.7224 27.0601 51.625C24.2976 50.95 21.6976 49.665 19.9351 47.6175C18.936 46.4802 18.1668 45.16 17.6701 43.73C17.1677 42.2878 16.9445 40.7632 17.0126 39.2375C17.0126 39.2375 16.6801 33.08 24.1051 27.0475C24.1051 27.0475 32.8801 19.6025 29.8351 14.0975C29.7229 13.8267 29.6896 13.5297 29.7392 13.2408C29.7887 12.9519 29.919 12.6829 30.1151 12.465C30.3056 12.2513 30.5572 12.1014 30.8359 12.0357C31.1145 11.97 31.4066 11.9915 31.6726 12.0975L32.0376 12.2425C35.3427 14.3318 37.926 17.3863 39.4376 20.9925C40.8876 24.525 40.8776 28.6425 39.8976 32.31C40.7101 31.58 41.3876 30.7075 41.9001 29.7275L41.9726 29.5675C42.4676 28.375 44.0251 28.755 44.6101 29.535C44.8251 29.8775 50.3401 37.8925 47.3776 44.655C46.2944 46.7039 44.7123 48.4467 42.7776 49.7225C41.1541 50.7998 39.34 51.5575 37.4326 51.955C37.0383 52.038 36.6284 52.005 36.2526 51.86C35.8733 51.7125 35.5432 51.4613 35.3001 51.135V51.1325ZM30.8851 31.73C31.1185 31.6083 31.3889 31.5783 31.6433 31.6459C31.8977 31.7134 32.1177 31.8736 32.2601 32.095C32.3601 32.2425 32.4251 32.41 32.4476 32.59L32.5601 33.4625C32.6101 34.74 32.5951 36.075 33.0926 37.3025C33.6076 38.5625 34.4076 39.6775 35.4226 40.5475C36.7302 41.4079 37.7423 42.6487 38.3226 44.1025C38.8726 45.5125 38.9476 47.0775 38.5326 48.535C39.8022 48.1345 40.9823 47.4918 42.0076 46.6425L42.2651 46.4325C43.1051 45.74 43.7976 44.875 44.2976 43.89C44.8001 42.9075 45.1026 41.8275 45.1826 40.7175C45.3451 38.155 44.4726 35.5825 43.1151 33.2875C42.4951 34.1875 41.6401 34.885 40.6526 35.2975C40.0351 35.56 39.3801 35.7225 38.7126 35.7725C38.3302 35.7971 37.949 35.7102 37.6151 35.5225C37.276 35.3298 36.9979 35.0457 36.8126 34.7025C36.6592 34.4258 36.5715 34.1175 36.5563 33.8014C36.5411 33.4854 36.5989 33.1701 36.7251 32.88C37.7551 30.45 38.0751 27.755 37.6376 25.1375C37.1197 22.1428 35.6854 19.3826 33.5326 17.2375C33.1426 22.75 27.4901 27.8825 26.3301 28.9875C26.1502 29.1569 25.9634 29.3187 25.7701 29.4725C19.7051 34.385 20.1201 38.86 20.1201 39.0575C19.9996 40.8352 20.3983 42.6096 21.2676 44.165C22.1801 45.7775 23.4926 47.1075 25.0676 48.015C23.2501 44.02 23.2501 39.225 29.9576 32.35L30.8876 31.725L30.8851 31.73Z" fill="white"/>
</g>
<defs>
<clipPath id="clip0_116_131">
<rect width="40" height="40" fill="white" transform="translate(12 12)"/>
</clipPath>
</defs>
</svg>
