<svg width="64" height="64" viewBox="0 0 64 64" fill="none" xmlns="http://www.w3.org/2000/svg">
<rect width="64" height="64" rx="20" fill="#E6B80B" fill-opacity="0.8"/>
<path fill-rule="evenodd" clip-rule="evenodd" d="M20.75 28.7577V25.3333C20.75 19.1201 25.7868 14.0833 32 14.0833C38.2132 14.0833 43.25 19.1201 43.25 25.3333V28.7577C45.108 28.8965 46.3179 29.2467 47.2022 30.1312C48.6667 31.5957 48.6667 33.9527 48.6667 38.6667C48.6667 43.3807 48.6667 45.7377 47.2022 47.2022C45.7377 48.6667 43.3807 48.6667 38.6667 48.6667H25.3334C20.6193 48.6667 18.2623 48.6667 16.7978 47.2022C15.3334 45.7377 15.3334 43.3807 15.3334 38.6667C15.3334 33.9527 15.3334 31.5957 16.7978 30.1312C17.6822 29.2467 18.8921 28.8965 20.75 28.7577ZM23.25 25.3333C23.25 20.5009 27.1676 16.5833 32 16.5833C36.8325 16.5833 40.75 20.5009 40.75 25.3333V28.6727C40.1117 28.6667 39.4192 28.6667 38.6667 28.6667H25.3334C24.5809 28.6667 23.8884 28.6667 23.25 28.6727V25.3333ZM35.3334 38.6667C35.3334 40.5077 33.841 42 32 42C30.159 42 28.6667 40.5077 28.6667 38.6667C28.6667 36.8257 30.159 35.3333 32 35.3333C33.841 35.3333 35.3334 36.8257 35.3334 38.6667Z" fill="white"/>
</svg>
