<svg width="64" height="64" viewBox="0 0 64 64" fill="none" xmlns="http://www.w3.org/2000/svg">
<rect width="64" height="64" rx="20" fill="#E6B80B" fill-opacity="0.8"/>
<g clip-path="url(#clip0_116_93)">
<path fill-rule="evenodd" clip-rule="evenodd" d="M46.8881 39.9644C45.9369 40.9512 43.53 43.4406 41.5463 45.4419L33.2444 36.5687L38.215 31.5981L46.8881 39.9644ZM31.4619 34.7869L36.4325 29.8162C36.4325 29.8162 33.9081 27.89 34.1406 26.6869C34.3731 25.4837 34.8981 23.7825 38.5544 22.2731C42.21 20.7644 45.6206 20.6281 45.6206 20.6281L45.7431 18.98C45.7431 18.98 37.3406 17.7106 32.9019 19.2875C28.4631 20.8644 23.4425 26.8006 23.4425 26.8006C23.4425 26.8006 24.3181 29.6712 22.8181 31.1719C21.3175 32.6725 19.3006 30.9425 19.3006 30.9425L17 33.8637L22.8056 39.6687L25.7213 37.3631C25.7213 37.3631 24.3413 35.2962 25.705 34.0587C28.6394 31.3956 31.4619 34.7869 31.4619 34.7869Z" fill="white"/>
</g>
<defs>
<clipPath id="clip0_116_93">
<rect width="40" height="40" fill="white" transform="translate(12 12)"/>
</clipPath>
</defs>
</svg>
