<svg width="64" height="64" viewBox="0 0 64 64" fill="none" xmlns="http://www.w3.org/2000/svg">
<rect width="64" height="64" rx="20" fill="#E6B80B" fill-opacity="0.8"/>
<path d="M25.3333 47C24.8913 47 24.4673 47.1756 24.1548 47.4882C23.8422 47.8007 23.6666 48.2246 23.6666 48.6667C23.6666 49.1087 23.8422 49.5326 24.1548 49.8452C24.4673 50.1577 24.8913 50.3333 25.3333 50.3333H38.6666C39.1087 50.3333 39.5326 50.1577 39.8451 49.8452C40.1577 49.5326 40.3333 49.1087 40.3333 48.6667C40.3333 48.2246 40.1577 47.8007 39.8451 47.4882C39.5326 47.1756 39.1087 47 38.6666 47H33.6666V40.1667C35.5476 39.7798 37.2377 38.7564 38.4521 37.2688C39.6665 35.7811 40.3309 33.9203 40.3333 32V22C40.3333 19.7899 39.4553 17.6702 37.8925 16.1074C36.3297 14.5446 34.2101 13.6667 32 13.6667C29.7898 13.6667 27.6702 14.5446 26.1074 16.1074C24.5446 17.6702 23.6666 19.7899 23.6666 22V32C23.6691 33.9203 24.3334 35.7811 25.5478 37.2688C26.7622 38.7564 28.4523 39.7798 30.3333 40.1667V47H25.3333ZM27.3066 33.6667H28.6666C29.1087 33.6667 29.5326 33.4911 29.8451 33.1785C30.1577 32.866 30.3333 32.442 30.3333 32C30.3333 31.558 30.1577 31.1341 29.8451 30.8215C29.5326 30.5089 29.1087 30.3333 28.6666 30.3333H27V28.6667H28.6666C29.1087 28.6667 29.5326 28.4911 29.8451 28.1785C30.1577 27.866 30.3333 27.442 30.3333 27C30.3333 26.558 30.1577 26.1341 29.8451 25.8215C29.5326 25.5089 29.1087 25.3333 28.6666 25.3333H27V23.6667H28.6666C29.1087 23.6667 29.5326 23.4911 29.8451 23.1785C30.1577 22.866 30.3333 22.442 30.3333 22C30.3333 21.558 30.1577 21.1341 29.8451 20.8215C29.5326 20.5089 29.1087 20.3333 28.6666 20.3333H27.3066C27.646 19.3591 28.2802 18.5146 29.1212 17.917C29.9622 17.3195 30.9683 16.9984 32 16.9984C33.0316 16.9984 34.0377 17.3195 34.8787 17.917C35.7197 18.5146 36.3539 19.3591 36.6933 20.3333H35.3333C34.8913 20.3333 34.4673 20.5089 34.1548 20.8215C33.8422 21.1341 33.6666 21.558 33.6666 22C33.6666 22.442 33.8422 22.866 34.1548 23.1785C34.4673 23.4911 34.8913 23.6667 35.3333 23.6667H37V25.3333H35.3333C34.8913 25.3333 34.4673 25.5089 34.1548 25.8215C33.8422 26.1341 33.6666 26.558 33.6666 27C33.6666 27.442 33.8422 27.866 34.1548 28.1785C34.4673 28.4911 34.8913 28.6667 35.3333 28.6667H37V30.3333H35.3333C34.8913 30.3333 34.4673 30.5089 34.1548 30.8215C33.8422 31.1341 33.6666 31.558 33.6666 32C33.6666 32.442 33.8422 32.866 34.1548 33.1785C34.4673 33.4911 34.8913 33.6667 35.3333 33.6667H36.6933C36.3539 34.6409 35.7197 35.4854 34.8787 36.083C34.0377 36.6805 33.0316 37.0016 32 37.0016C30.9683 37.0016 29.9622 36.6805 29.1212 36.083C28.2802 35.4854 27.646 34.6409 27.3066 33.6667Z" fill="white"/>
</svg>
