<svg width="64" height="64" viewBox="0 0 64 64" fill="none" xmlns="http://www.w3.org/2000/svg">
<rect width="64" height="64" rx="20" fill="#E6B80B" fill-opacity="0.8"/>
<path d="M25.3334 40.3333H38.6667M25.3334 40.3333C25.3334 42.1743 23.841 43.6667 22 43.6667C20.1591 43.6667 18.6667 42.1743 18.6667 40.3333M25.3334 40.3333C25.3334 38.4923 23.841 37 22 37C20.1591 37 18.6667 38.4923 18.6667 40.3333M38.6667 40.3333C38.6667 42.1743 40.159 43.6667 42 43.6667C43.841 43.6667 45.3334 42.1743 45.3334 40.3333M38.6667 40.3333C38.6667 38.4923 40.159 37 42 37C43.841 37 45.3334 38.4923 45.3334 40.3333M18.6667 40.3333H18C17.0666 40.3333 16.5999 40.3333 16.2434 40.1517C15.9298 39.9918 15.6748 39.737 15.515 39.4233C15.3334 39.0668 15.3334 38.6002 15.3334 37.6667V35.6667C15.3334 33.7998 15.3334 32.8663 15.6967 32.1533C16.0163 31.5262 16.5262 31.0162 17.1534 30.6967C17.8664 30.3333 18.7999 30.3333 20.6667 30.3333H40.6667C41.9054 30.3333 42.5247 30.3333 43.0429 30.4153C45.8955 30.8672 48.1329 33.1045 48.5847 35.9572C48.6667 36.4753 48.6667 37.0947 48.6667 38.3333C48.6667 38.643 48.6667 38.7978 48.6462 38.9273C48.5332 39.6405 47.9739 40.1998 47.2607 40.3128C47.1312 40.3333 46.9764 40.3333 46.6667 40.3333H45.3334M28.6667 20.3333V30.3333M18.6667 30.3333L19.2192 27.0181C19.6151 24.6432 19.813 23.4558 20.4055 22.5647C20.9279 21.7792 21.6618 21.1575 22.5225 20.7714C23.4989 20.3333 24.7027 20.3333 27.1104 20.3333H32.7185C34.2839 20.3333 35.0665 20.3333 35.777 20.5491C36.406 20.7401 36.991 21.0532 37.4989 21.4706C38.0725 21.9421 38.5067 22.5933 39.375 23.8957L43.6667 30.3333" stroke="white" stroke-width="3.33333" stroke-linecap="round" stroke-linejoin="round"/>
</svg>
