<svg width="64" height="64" viewBox="0 0 64 64" fill="none" xmlns="http://www.w3.org/2000/svg">
<rect width="64" height="64" rx="20" fill="#E6B80B" fill-opacity="0.8"/>
<g clip-path="url(#clip0_116_102)">
<path d="M23.5158 35.7975C21.5883 35.7975 20.0258 37.3588 20.0258 39.2888C20.027 41.215 21.587 42.7764 23.5158 42.7775C25.4457 42.7763 27.0058 41.215 27.007 39.2888C27.007 38.3257 26.6151 37.4492 25.984 36.8193C25.3554 36.1894 24.4765 35.7964 23.5158 35.7975ZM23.5158 41.1589C22.4819 41.1565 21.6469 40.3203 21.6444 39.2887C21.6469 38.2523 22.4819 37.4186 23.5158 37.4174C24.5509 37.4174 25.3871 38.2524 25.3871 39.2887C25.3859 40.3203 24.5497 41.1565 23.5158 41.1589Z" fill="white"/>
<path d="M42.372 35.7975C40.4457 35.7975 38.882 37.3576 38.882 39.2888C38.882 41.215 40.4445 42.7764 42.372 42.7775C44.3007 42.7763 45.8607 41.215 45.862 39.2888C45.862 37.3589 44.2995 35.7975 42.372 35.7975ZM42.372 41.1589C41.3392 41.1565 40.5018 40.319 40.5006 39.2887C40.5019 38.2536 41.3381 37.4186 42.372 37.4174C43.4071 37.4186 44.2409 38.2524 44.2421 39.2887C44.2409 40.3203 43.4059 41.1565 42.372 41.1589Z" fill="white"/>
<path d="M23.5158 38.6016C23.1386 38.6016 22.8309 38.908 22.8309 39.2888C22.8309 39.6673 23.1386 39.9748 23.5158 39.9748C23.8942 39.9748 24.2018 39.6672 24.2018 39.2888C24.2019 38.908 23.8942 38.6016 23.5158 38.6016Z" fill="white"/>
<path d="M42.372 38.6016C41.9936 38.6016 41.686 38.908 41.686 39.2888C41.686 39.6673 41.9937 39.9748 42.372 39.9748C42.7492 39.9748 43.0569 39.6672 43.0569 39.2888C43.0568 38.908 42.7492 38.6016 42.372 38.6016Z" fill="white"/>
<path d="M34.5437 21.5569C34.5352 21.3701 34.341 21.2224 34.1042 21.2224H32.5881C32.3525 21.2224 32.1572 21.3701 32.1487 21.5569L32.0547 23.5991H34.6389L34.5437 21.5569Z" fill="white"/>
<path d="M34.9745 24.1265H31.7177V24.8833H34.9745V24.1265Z" fill="white"/>
<path d="M51.6969 31.5447C51.4528 31.2541 51.0902 31.0845 50.7082 31.0845H45.1626L42.3537 26.1967C42.0644 25.6962 41.531 25.3862 40.9523 25.3862H27.2353C26.7385 25.3862 26.2697 25.6157 25.9633 26.0063L22.477 30.4644C22.1706 30.8562 21.7018 31.0845 21.2051 31.0845H13.2924C12.9128 31.0845 12.5539 31.2518 12.3073 31.5398C12.0632 31.828 11.9558 32.21 12.0168 32.5848L13.3583 37.8094C13.5415 38.5259 14.186 39.024 14.9258 39.024L19.2446 39.0142C19.3886 36.773 21.2392 34.9884 23.5158 34.9884C24.6669 34.9884 25.7461 35.4363 26.5579 36.2469C27.3001 36.9866 27.7176 37.9571 27.7871 38.9959L38.1045 38.9691C38.2718 36.7498 40.1114 34.9884 42.3721 34.9884C44.6267 34.9884 46.4615 36.7388 46.6372 38.9495L49.8489 38.9422C50.6729 38.9409 51.3613 38.3209 51.4517 37.5017L51.9803 32.5994C52.0472 32.2246 51.9435 31.8377 51.6969 31.5447ZM16.9386 34.6062H14.6351L14.1408 32.6298H16.9386V34.6062ZM24.0456 31.3494L27.3158 27.1673H34.1103V31.3494H24.0456ZM36.6396 37.8435H29.1762V32.9045H36.6396V37.8435ZM36.2355 31.3494V27.1673H40.8571L43.2594 31.3494H36.2355Z" fill="white"/>
<path d="M32.0057 35.761C32.068 35.822 32.0973 35.9099 32.0826 35.9967L31.9813 36.5863C31.9642 36.6852 32.0057 36.7865 32.0874 36.8463C32.1692 36.906 32.2779 36.9134 32.367 36.8658L32.8967 36.5887C32.9736 36.5484 33.0664 36.5484 33.1446 36.5887L33.6731 36.8658C33.7623 36.9134 33.8721 36.9061 33.9539 36.8463C34.0357 36.7864 34.076 36.6851 34.0601 36.5863L33.9588 35.9967C33.9441 35.91 33.9722 35.8221 34.0345 35.761L34.4629 35.3448C34.5349 35.274 34.5618 35.1677 34.53 35.0713C34.4982 34.9749 34.4153 34.9053 34.3152 34.8906L33.7243 34.804C33.6377 34.7918 33.562 34.7369 33.5229 34.6588L33.2592 34.1229C33.2141 34.0313 33.1213 33.974 33.0199 33.974C32.9186 33.974 32.8259 34.0313 32.7819 34.1229L32.517 34.6588C32.4779 34.7369 32.4035 34.7918 32.3167 34.804L31.7249 34.8906C31.6249 34.9053 31.5418 34.9749 31.5101 35.0713C31.4796 35.1677 31.5052 35.274 31.5772 35.3448L32.0057 35.761Z" fill="white"/>
</g>
<defs>
<clipPath id="clip0_116_102">
<rect width="40" height="40" fill="white" transform="translate(12 12)"/>
</clipPath>
</defs>
</svg>
