<svg width="64" height="64" viewBox="0 0 64 64" fill="none" xmlns="http://www.w3.org/2000/svg">
<rect width="64" height="64" rx="20" fill="#E6B80B" fill-opacity="0.8"/>
<g clip-path="url(#clip0_116_145)">
<path d="M40.4401 39.7371C40.1384 39.6241 39.8095 39.4687 39.4752 39.2845L33.8838 47.0138L33.4862 41.9502H30.5149L30.1171 47.0138L24.5258 39.2845C24.1814 39.4771 23.8495 39.635 23.5601 39.7371C20.6321 40.7678 13.4391 43.7321 13.9033 49.2848C14.0147 50.6173 21.3424 52 32.0006 52C42.6578 52 49.9856 50.6173 50.097 49.2848C50.5613 43.7267 43.3495 40.8251 40.4401 39.7371Z" fill="white"/>
<path d="M25.3985 28.2712C25.8055 30.5771 26.4896 32.6113 27.3902 33.6134C27.3902 34.8151 27.3902 35.6918 27.3902 36.3936C27.3902 36.4641 27.3779 36.5383 27.3577 36.6149L30.5148 38.1354V40.3655H33.4861V38.1354L36.6415 36.6157C36.6214 36.5391 36.609 36.4648 36.609 36.3936C36.609 35.6918 36.609 34.8151 36.609 33.6134C37.5112 32.6113 38.1953 30.5771 38.6023 28.2712C39.551 27.9323 40.0942 27.3898 40.7712 25.0166C41.4924 22.4887 39.6872 22.5746 39.6872 22.5746C41.1473 17.7408 39.2245 13.1979 36.0056 13.5314C33.7848 9.64624 26.3473 14.4189 24.015 14.0862C24.015 15.4187 24.5706 16.4176 24.5706 16.4176C23.7598 17.9559 24.0723 21.0232 24.3014 22.5746C24.1683 22.5723 22.5356 22.5893 23.2289 25.0166C23.9066 27.3898 24.4483 27.9323 25.3985 28.2712Z" fill="white"/>
</g>
<defs>
<clipPath id="clip0_116_145">
<rect width="40" height="40" fill="white" transform="translate(12 12)"/>
</clipPath>
</defs>
</svg>
