<svg width="64" height="64" viewBox="0 0 64 64" fill="none" xmlns="http://www.w3.org/2000/svg">
<rect width="64" height="64" rx="20" fill="#E6B80B" fill-opacity="0.8"/>
<g clip-path="url(#clip0_116_138)">
<path d="M25.9111 26.9068L19.6114 26.9068L19.2617 27.58L25.5258 27.58L22.788 32.3623H16.7776L16.4279 33.0355H22.4027L19.8813 37.4399H14.1115L15.6632 34.4568V33.0355H15.6817V32.3623H15.6632V27.58H15.6817V26.9068H15.6632V26.5489H15.6817V25.2195H20.4682L22.2344 21.8242H28.8207L25.9111 26.9068Z" fill="white"/>
<path d="M29.5964 21.8242L26.6868 26.9068H32.1568L35.0664 21.8242H29.5964Z" fill="white"/>
<path d="M35.842 21.8242L32.9324 26.9068L38.8217 26.9068L40.1227 24.3683L48.9616 42.1767H52.3524L41.7655 21.8242H35.842Z" fill="white"/>
<path d="M38.4767 27.58L32.5471 27.58L29.8094 32.3623H36.0258L38.4767 27.58Z" fill="white"/>
<path d="M35.6808 33.0355H29.424L26.9027 37.4399H33.4236L35.6808 33.0355Z" fill="white"/>
<path d="M33.0786 38.113H26.5173L24.191 42.1767H30.996L33.0786 38.113Z" fill="white"/>
<path d="M23.4153 42.1767L25.7417 38.113H20.2716L17.9453 42.1767H23.4153Z" fill="white"/>
<path d="M17.1697 42.1767L19.496 38.113H13.7613L11.6475 42.1767H17.1697Z" fill="white"/>
<path d="M26.3014 27.58H31.7714L29.0337 32.3623H23.5637L26.3014 27.58Z" fill="white"/>
<path d="M23.1783 33.0355L20.657 37.4399H26.127L28.6484 33.0355H23.1783Z" fill="white"/>
<path d="M36.8872 34.472H39.855V37.4398H36.8872V34.472Z" fill="white"/>
<path d="M36.8872 38.1819H39.855V41.1497H36.8872V38.1819Z" fill="white"/>
<path d="M43.5645 34.472H40.5967V37.4398H43.5645V34.472Z" fill="white"/>
<path d="M40.5967 38.1819H43.5645V41.1497H40.5967V38.1819Z" fill="white"/>
</g>
<defs>
<clipPath id="clip0_116_138">
<rect width="40" height="40" fill="white" transform="translate(12 12)"/>
</clipPath>
</defs>
</svg>
