<svg width="82" height="68" viewBox="0 0 82 68" fill="none" xmlns="http://www.w3.org/2000/svg">
<g clip-path="url(#clip0_116_491)">
<mask id="mask0_116_491" style="mask-type:luminance" maskUnits="userSpaceOnUse" x="0" y="0" width="82" height="68">
<path d="M82 0H0V68H82V0Z" fill="white"/>
</mask>
<g mask="url(#mask0_116_491)">
<path d="M19.7808 17.3968V24.4169C19.7808 31.2859 21.9218 38.0636 25.9722 44.0175C29.5881 49.3326 34.64 53.8652 40.6779 57.2328C46.7158 53.8652 51.7678 49.3326 55.3836 44.0175C59.4342 38.0636 61.5751 31.2859 61.5751 24.4169V17.3945C54.1224 16.7848 46.8818 14.5742 40.6927 11.0002C34.487 14.5836 27.2565 16.7931 19.7808 17.3968Z" fill="#E6B80B"/>
<path d="M65.8006 13.742C57.102 13.742 48.6371 11.3501 41.6886 6.92614L40.6779 6.28265L40.5251 6.38547C33.4779 11.1203 24.7467 13.7113 15.741 13.7402L15.3555 13.7416V24.3137C15.3555 39.6259 25.0009 53.7823 40.6779 61.4785C56.3551 53.7823 66.0006 39.6259 66.0006 24.3137V13.7416C65.9336 13.7419 65.8675 13.742 65.8006 13.742ZM61.5752 24.4168C61.5752 31.2859 59.4342 38.0636 55.3836 44.0176C51.7678 49.3326 46.7159 53.8651 40.6779 57.2328C34.6401 53.8651 29.5881 49.3326 25.9722 44.0176C21.9217 38.0636 19.7808 31.2859 19.7808 24.4168V17.3969C27.2565 16.7931 34.4871 14.5837 40.6928 11.0002C46.8819 14.5743 54.1223 16.7849 61.5752 17.3945V24.4168Z" fill="#EFD341"/>
<path d="M41.7853 36.4235H40.6527H39.5201L39.9923 34.1777C39.5976 33.9495 39.3312 33.5241 39.3312 33.0355C39.3312 32.3065 39.9229 31.7154 40.6527 31.7154C41.3825 31.7154 41.974 32.3065 41.974 33.0355C41.974 33.5241 41.7076 33.9495 41.3131 34.1777L41.7853 36.4235ZM37.6619 25.8998C37.6619 24.2879 39.0036 22.9764 40.6525 22.9764C42.3016 22.9764 43.6433 24.2879 43.6433 25.8998V27.9152H37.6619V25.8998ZM46.3273 27.9152H45.2173V25.8998C45.2173 23.4395 43.1697 21.4379 40.6525 21.4379C38.1356 21.4379 36.0879 23.4395 36.0879 25.8998V27.9152H34.978C34.2 27.9152 33.5696 28.5317 33.5696 29.292V39.6162C33.5696 40.3765 34.2 40.993 34.978 40.993H46.3273C47.1051 40.993 47.7358 40.3765 47.7358 39.6162V29.292C47.7358 28.5317 47.1051 27.9152 46.3273 27.9152Z" fill="white"/>
<mask id="mask1_116_491" style="mask-type:alpha" maskUnits="userSpaceOnUse" x="11" y="2" width="68" height="72">
<g opacity="0.17">
<path d="M78.4797 7.23494L32.9993 73.2323L11.9005 68.6508L57.3809 2.65344L78.4797 7.23494Z" fill="#ECE63F"/>
<mask id="mask2_116_491" style="mask-type:luminance" maskUnits="userSpaceOnUse" x="11" y="2" width="68" height="72">
<path d="M78.4797 6.40374L28.0531 73.2323L11.9005 69.482L62.3271 2.65344L78.4797 6.40374Z" fill="url(#paint0_linear_116_491)"/>
</mask>
<g mask="url(#mask2_116_491)">
<path d="M78.4797 6.48163L28.7017 73.2322L11.9005 69.404L61.6785 2.65338L78.4797 6.48163Z" fill="url(#paint1_linear_116_491)" fill-opacity="0.26"/>
</g>
</g>
</mask>
<g mask="url(#mask1_116_491)">
<path d="M40.6941 6.20874C40.6941 6.20874 32.5859 13.3783 15.4516 13.674C15.2986 13.6766 15.3751 20.9913 15.3543 26.5648C15.3476 28.3597 16.8284 50.2609 40.6941 61.4957C41.1181 61.6953 41.8424 61.031 42.2927 60.7507C46.2016 58.3174 47.8843 57.3566 51.9494 54.0379C59.2513 48.0765 65.2829 37.8752 65.825 26.8786C66.0896 21.5088 65.9366 16.8556 65.9367 13.6C65.9367 13.4522 64.445 13.637 64.445 13.637C64.445 13.637 58.6528 14.0143 50.3283 11.0247C44.3275 8.86961 40.6941 6.20874 40.6941 6.20874Z" fill="#ECE63F"/>
</g>
<path d="M37.6619 27.9151L43.6768 27.9785L43.6433 27.9151H37.6619Z" fill="white"/>
<path d="M34.9759 27.9158C34.198 27.9158 33.5674 28.5323 33.5674 29.2925V39.6168C33.5674 40.3772 34.198 40.9936 34.9759 40.9936H46.3253C47.103 40.9936 47.7338 40.3772 47.7338 39.6168V29.2925C47.7338 28.5323 47.103 27.9158 46.3253 27.9158" fill="white"/>
<path d="M41.7853 36.4234H39.5201L39.9922 34.1776C39.5975 33.9494 39.3311 33.524 39.3311 33.0353C39.3311 32.3063 39.9227 31.7153 40.6525 31.7153C41.3823 31.7153 41.974 32.3063 41.974 33.0353C41.974 33.524 41.7076 33.9494 41.3131 34.1776L41.7853 36.4234Z" fill="#E6B80B"/>
</g>
</g>
<defs>
<linearGradient id="paint0_linear_116_491" x1="24.4273" y1="39.3058" x2="74.4906" y2="76.9347" gradientUnits="userSpaceOnUse">
<stop stop-color="white"/>
<stop offset="0.14" stop-color="white" stop-opacity="0.5"/>
<stop offset="0.52" stop-color="white" stop-opacity="0"/>
</linearGradient>
<linearGradient id="paint1_linear_116_491" x1="23.804" y1="39.2185" x2="76.0899" y2="78.0503" gradientUnits="userSpaceOnUse">
<stop stop-color="white"/>
<stop offset="0.09" stop-color="white"/>
<stop offset="0.48" stop-color="white"/>
</linearGradient>
<clipPath id="clip0_116_491">
<rect width="82" height="68" fill="white"/>
</clipPath>
</defs>
</svg>
