<svg width="86" height="389" viewBox="0 0 86 389" fill="none" xmlns="http://www.w3.org/2000/svg">
<path fill-rule="evenodd" clip-rule="evenodd" d="M73.2607 379.48C73.2029 377.824 74.4983 376.435 76.1542 376.377L81.8716 376.178C83.5275 376.12 84.9167 377.415 84.9745 379.071L85.1742 384.789C85.232 386.445 83.9366 387.834 82.2807 387.892L76.5632 388.091C74.9074 388.149 73.5182 386.854 73.4603 385.198L73.2607 379.48Z" fill="#EBC63C"/>
<path fill-rule="evenodd" clip-rule="evenodd" d="M2.84796 2.92293C3.22067 1.30854 4.83154 0.301959 6.44592 0.67467L13.969 2.41151C15.5834 2.78422 16.59 4.39509 16.2173 6.00948L14.4804 13.5326C14.1077 15.147 12.4969 16.1535 10.8825 15.7808L3.35938 14.044C1.74499 13.6713 0.738407 12.0604 1.11112 10.446L2.84796 2.92293Z" fill="#EBC63C"/>
</svg>
